<?xml version="1.0" encoding="UTF-8" standalone="no"?>
<svg
   version="1.2"
   viewBox="0 0 243 243"
   width="243"
   height="243"
   id="svg831"
   sodipodi:docname="dolphin_logo_with_background.svg"
   inkscape:version="1.1.1 (c3084ef, 2021-09-22)"
   xmlns:inkscape="http://www.inkscape.org/namespaces/inkscape"
   xmlns:sodipodi="http://sodipodi.sourceforge.net/DTD/sodipodi-0.dtd"
   xmlns="http://www.w3.org/2000/svg"
   xmlns:svg="http://www.w3.org/2000/svg"
   xmlns:rdf="http://www.w3.org/1999/02/22-rdf-syntax-ns#"
   xmlns:cc="http://creativecommons.org/ns#"
   xmlns:dc="http://purl.org/dc/elements/1.1/">
  <defs
     id="defs835" />
  <sodipodi:namedview
     id="namedview833"
     pagecolor="#ffffff"
     bordercolor="#666666"
     borderopacity="1.0"
     inkscape:pageshadow="2"
     inkscape:pageopacity="0.0"
     inkscape:pagecheckerboard="0"
     showgrid="false"
     inkscape:zoom="1.2789924"
     inkscape:cx="-56.294312"
     inkscape:cy="103.59717"
     inkscape:window-width="1680"
     inkscape:window-height="1003"
     inkscape:window-x="0"
     inkscape:window-y="0"
     inkscape:window-maximized="0"
     inkscape:current-layer="svg831" />
  <title
     id="title824">dolphin_logo</title>
  <style
     id="style826">
		tspan { white-space:pre }
		.shp0 { fill: #000000 } 
		.shp1 { fill: #ffffff } 
	</style>
  <rect
     style="fill:#ffffff;stroke:#000000;stroke-width:0;stroke-linejoin:round;stroke-miterlimit:3;stroke-dasharray:none;stroke-dashoffset:75.5906;paint-order:stroke fill markers"
     id="rect935"
     width="236.83009"
     height="236.83009"
     x="3.0849533"
     y="3.0849533"
     ry="55.50705" />
  <g
     id="2"
     transform="matrix(0.87157579,0,0,0.87157579,15.167834,11.241882)">
    <path
       id="Shape 4"
       class="shp0"
       d="m 198.28179,23.029784 c -17.16,0.59 -38.83852,3.649531 -50.97852,19.269531 0,0 23.56836,4.53039 43.06836,23.65039 0,0 1.45164,-23.219062 13.18164,-31.539062 0,0 12.89852,-12.010859 -5.27148,-11.380859 z m -90,21.316406 c -71.37336,-0.794597 -58.529301,59.27344 -58.529301,59.27344 -31.58,22.43999 -8.789062,26.26953 -8.789062,26.26953 -1e-6,0 6.068906,3.23054 34.628906,-4.68946 33.519997,-9.29 67.890387,-11.65992 84.900387,14.33008 19.88027,30.38674 -5.73868,44.76823 -21.29296,50.39258 -2.41356,-6.27911 -5.50039,-17.30406 -10.94727,-29.75195 -7.37,-16.82 -25.63086,-18.05079 -25.63086,-18.05079 -4.23,-0.9 -2.45898,3.29102 -2.45898,3.29102 16.67,24.36 1.71968,31.38977 5.92968,40.25977 0.34714,0.73219 0.95885,1.4143 1.67578,2.07226 0.0878,0.13501 0.30522,0.35866 0.67579,0.68555 0.0195,0.0172 0.0409,0.0336 0.0605,0.0508 -1.29493,0.32815 -2.42594,0.78491 -3.22265,1.4707 -7.470004,6.42 3.33039,18.91094 -21.849613,34.46094 0,0 -3.319844,3.11977 0.910156,4.00977 0,0 17.200777,6.2696 30.800777,-6.1504 7.27123,-6.63499 13.02108,-12.98138 17.50977,-17.86914 -0.20975,-0.0113 -0.41448,-0.0146 -0.625,-0.0273 0.36412,-0.097 0.75616,-0.29295 1.21094,-0.5957 -0.21131,0.22942 -0.3682,0.38595 -0.58594,0.62304 96.96743,5.23383 111.46093,-139.614008 0.58984,-157.720696 -9.29343,-1.51875 -17.57748,-2.251784 -24.96093,-2.333984 z m 10.55859,77.51953 c -4.26375,0.0309 -7.62695,0.73437 -7.62695,0.73437 0,0 5.62984,24.14 24.08984,30.25 0,0 -2.8114,-24.24914 -0.1914,-26.11914 1.34999,-0.96 -5.28883,-3.81109 -11.79883,-4.62109 -1.53,-0.19 -3.05141,-0.25445 -4.47266,-0.24414 z m 22.6875,73.45703 c 0.0728,0.1048 0.20221,0.22132 0.21094,0.3125 l -0.6211,-0.0625 c 0.19754,-0.0699 0.30925,-0.15881 0.41016,-0.25 z" />
    <path
       id="Ellipse 1"
       class="shp1"
       d="m 81.39,81.72 c 4.86,0 8.8,3.92 8.8,8.75 0,4.83 -3.94,8.75 -8.8,8.75 -4.86,0 -8.8,-3.92 -8.8,-8.75 0,-4.83 3.94,-8.75 8.8,-8.75 z" />
  </g>
  <metadata
     id="metadata917">
    <rdf:RDF>
      <cc:Work
         rdf:about="">
        <dc:title>dolphin_logo</dc:title>
      </cc:Work>
    </rdf:RDF>
  </metadata>
</svg>
