<?xml version="1.0" encoding="UTF-8" standalone="no"?>
<svg
   version="1.2"
   viewBox="0 0 243 243"
   width="243"
   height="243"
   id="svg831"
   sodipodi:docname="dolphin_logo.svg"
   inkscape:version="1.1.1 (c3084ef, 2021-09-22)"
   xmlns:inkscape="http://www.inkscape.org/namespaces/inkscape"
   xmlns:sodipodi="http://sodipodi.sourceforge.net/DTD/sodipodi-0.dtd"
   xmlns="http://www.w3.org/2000/svg"
   xmlns:svg="http://www.w3.org/2000/svg"
   xmlns:rdf="http://www.w3.org/1999/02/22-rdf-syntax-ns#"
   xmlns:cc="http://creativecommons.org/ns#"
   xmlns:dc="http://purl.org/dc/elements/1.1/">
  <defs
     id="defs835" />
  <sodipodi:namedview
     id="namedview833"
     pagecolor="#ffffff"
     bordercolor="#666666"
     borderopacity="1.0"
     inkscape:pageshadow="2"
     inkscape:pageopacity="0.0"
     inkscape:pagecheckerboard="0"
     showgrid="false"
     inkscape:zoom="1.9203237"
     inkscape:cx="30.203241"
     inkscape:cy="38.795543"
     inkscape:window-width="1680"
     inkscape:window-height="1003"
     inkscape:window-x="0"
     inkscape:window-y="0"
     inkscape:window-maximized="0"
     inkscape:current-layer="2" />
  <title
     id="title824">dolphin_logo</title>
  <style
     id="style826">
		tspan { white-space:pre }
		.shp0 { fill: #000000 } 
		.shp1 { fill: #ffffff } 
	</style>
  <g
     id="2"
     transform="translate(-0.49992704,-5.004331)">
    <path
       id="Shape 4"
       class="shp0"
       d="M 197.7793 18.025391 C 180.6193 18.615391 158.94078 21.674922 146.80078 37.294922 C 146.80078 37.294922 170.36914 41.825312 189.86914 60.945312 C 189.86914 60.945312 191.32078 37.72625 203.05078 29.40625 C 203.05078 29.40625 215.9493 17.395391 197.7793 18.025391 z M 107.7793 39.341797 C 36.405941 38.5472 49.25 98.615234 49.25 98.615234 C 17.67 121.05523 40.460938 124.88477 40.460938 124.88477 C 40.460937 124.88477 46.529844 128.11531 75.089844 120.19531 C 108.60984 110.90531 142.98023 108.53539 159.99023 134.52539 C 179.8705 164.91213 154.25155 179.29362 138.69727 184.91797 C 136.28371 178.63886 133.19688 167.61391 127.75 155.16602 C 120.38 138.34602 102.11914 137.11523 102.11914 137.11523 C 97.889141 136.21523 99.660156 140.40625 99.660156 140.40625 C 116.33016 164.76625 101.37984 171.79602 105.58984 180.66602 C 105.93698 181.39821 106.54869 182.08032 107.26562 182.73828 C 107.35344 182.87329 107.57084 183.09694 107.94141 183.42383 C 107.96092 183.44105 107.98234 183.45742 108.00195 183.47461 C 106.70702 183.80276 105.57601 184.25952 104.7793 184.94531 C 97.309297 191.36531 108.10969 203.85625 82.929688 219.40625 C 82.929688 219.40625 79.609844 222.52602 83.839844 223.41602 C 83.839844 223.41602 101.04062 229.68562 114.64062 217.26562 C 121.91185 210.63063 127.6617 204.28424 132.15039 199.39648 C 131.94064 199.38516 131.73591 199.38187 131.52539 199.36914 C 131.88951 199.27214 132.28155 199.07619 132.73633 198.77344 C 132.52502 199.00286 132.36813 199.15939 132.15039 199.39648 C 229.11782 204.63031 243.61132 59.782469 132.74023 41.675781 C 123.4468 40.157031 115.16275 39.423997 107.7793 39.341797 z M 118.33789 116.86133 C 114.07414 116.89227 110.71094 117.5957 110.71094 117.5957 C 110.71094 117.5957 116.34078 141.7357 134.80078 147.8457 C 134.80078 147.8457 131.98938 123.59656 134.60938 121.72656 C 135.95937 120.76656 129.32055 117.91547 122.81055 117.10547 C 121.28055 116.91547 119.75914 116.85102 118.33789 116.86133 z M 141.02539 190.31836 C 141.09824 190.42316 141.2276 190.53968 141.23633 190.63086 L 140.61523 190.56836 C 140.81277 190.49842 140.92448 190.40955 141.02539 190.31836 z "
       transform="translate(0.49992704,5.004331)" />
    <path
       id="Ellipse 1"
       class="shp1"
       d="m 81.39,81.72 c 4.86,0 8.8,3.92 8.8,8.75 0,4.83 -3.94,8.75 -8.8,8.75 -4.86,0 -8.8,-3.92 -8.8,-8.75 0,-4.83 3.94,-8.75 8.8,-8.75 z" />
  </g>
  <metadata
     id="metadata917">
    <rdf:RDF>
      <cc:Work
         rdf:about="">
        <dc:title>dolphin_logo</dc:title>
      </cc:Work>
    </rdf:RDF>
  </metadata>
</svg>
