<svg width="535" height="653" viewBox="0 0 535 653" fill="none" xmlns="http://www.w3.org/2000/svg">
<rect width="535" height="653" fill="#6A6A6A" style="mix-blend-mode:screen"/>
<path d="M49.12 53.656L49.168 50.296H49.04L46.8 56.04L44.56 50.296H44.432L44.48 53.656V59H42.896V47.832H45.088L46.8 52.264H46.912L48.64 47.832H50.704V59H49.12V53.656ZM59.4658 59C58.9644 59 58.5858 58.872 58.3298 58.616C58.0844 58.36 57.9351 58.024 57.8818 57.608H57.8018C57.6418 58.1093 57.3484 58.4987 56.9218 58.776C56.5058 59.0533 55.9724 59.192 55.3218 59.192C54.4791 59.192 53.8071 58.9733 53.3058 58.536C52.8044 58.088 52.5538 57.4747 52.5538 56.696C52.5538 55.896 52.8471 55.288 53.4338 54.872C54.0311 54.4453 54.9431 54.232 56.1698 54.232H57.7538V53.592C57.7538 52.472 57.1618 51.912 55.9778 51.912C55.4444 51.912 55.0124 52.0187 54.6818 52.232C54.3511 52.4347 54.0738 52.7067 53.8498 53.048L52.8098 52.2C53.0444 51.752 53.4391 51.368 53.9938 51.048C54.5484 50.7173 55.2631 50.552 56.1378 50.552C57.1831 50.552 58.0044 50.8027 58.6018 51.304C59.1991 51.8053 59.4978 52.5307 59.4978 53.48V57.624H60.5378V59H59.4658ZM55.8177 57.912C56.3831 57.912 56.8471 57.784 57.2098 57.528C57.5724 57.272 57.7538 56.9413 57.7538 56.536V55.336H56.2018C54.9431 55.336 54.3138 55.7147 54.3138 56.472V56.792C54.3138 57.1653 54.4471 57.448 54.7138 57.64C54.9804 57.8213 55.3484 57.912 55.8177 57.912ZM62.5315 59V50.744H64.2755V52.152H64.3555C64.4408 51.9387 64.5475 51.736 64.6755 51.544C64.8142 51.3413 64.9795 51.1707 65.1715 51.032C65.3635 50.8827 65.5875 50.7653 65.8435 50.68C66.0995 50.5947 66.3982 50.552 66.7395 50.552C67.5715 50.552 68.2435 50.824 68.7555 51.368C69.2675 51.912 69.5235 52.6853 69.5235 53.688V59H67.7795V53.944C67.7795 52.632 67.2088 51.976 66.0675 51.976C65.8435 51.976 65.6248 52.008 65.4115 52.072C65.1982 52.1253 65.0062 52.2107 64.8355 52.328C64.6648 52.4453 64.5262 52.5947 64.4195 52.776C64.3235 52.9573 64.2755 53.1653 64.2755 53.4V59H62.5315ZM76.0773 59C75.3519 59 74.8186 58.808 74.4773 58.424C74.1359 58.0293 73.9653 57.5227 73.9653 56.904V52.152H71.4213V50.744H73.2293C73.5386 50.744 73.7573 50.6853 73.8853 50.568C74.0133 50.44 74.0773 50.216 74.0773 49.896V47.832H75.7093V50.744H79.2292V52.152H75.7093V57.592H79.2292V59H76.0773ZM88.247 59C87.7457 59 87.367 58.872 87.111 58.616C86.8657 58.36 86.7163 58.024 86.663 57.608H86.583C86.423 58.1093 86.1297 58.4987 85.703 58.776C85.287 59.0533 84.7537 59.192 84.103 59.192C83.2603 59.192 82.5883 58.9733 82.087 58.536C81.5857 58.088 81.335 57.4747 81.335 56.696C81.335 55.896 81.6283 55.288 82.215 54.872C82.8123 54.4453 83.7243 54.232 84.951 54.232H86.535V53.592C86.535 52.472 85.943 51.912 84.759 51.912C84.2257 51.912 83.7937 52.0187 83.463 52.232C83.1323 52.4347 82.855 52.7067 82.631 53.048L81.591 52.2C81.8257 51.752 82.2203 51.368 82.775 51.048C83.3297 50.7173 84.0443 50.552 84.919 50.552C85.9643 50.552 86.7857 50.8027 87.383 51.304C87.9803 51.8053 88.279 52.5307 88.279 53.48V57.624H89.319V59H88.247ZM84.599 57.912C85.1643 57.912 85.6283 57.784 85.991 57.528C86.3537 57.272 86.535 56.9413 86.535 56.536V55.336H84.983C83.7243 55.336 83.095 55.7147 83.095 56.472V56.792C83.095 57.1653 83.2283 57.448 83.495 57.64C83.7617 57.8213 84.1297 57.912 84.599 57.912ZM100.763 59L99.9625 47.832H101.531L101.931 54.328L102.107 57.192H102.235L103.499 50.536H105.275L106.539 57.192H106.667L106.843 54.328L107.259 47.832H108.763L107.963 59H105.563L104.427 52.536H104.299L103.163 59H100.763ZM110.5 47.16H112.244V52.152H112.324C112.41 51.9387 112.516 51.736 112.644 51.544C112.783 51.3413 112.948 51.1707 113.14 51.032C113.332 50.8827 113.556 50.7653 113.812 50.68C114.068 50.5947 114.367 50.552 114.708 50.552C115.54 50.552 116.212 50.824 116.724 51.368C117.236 51.912 117.492 52.6853 117.492 53.688V59H115.748V53.944C115.748 52.632 115.178 51.976 114.036 51.976C113.812 51.976 113.594 52.008 113.38 52.072C113.167 52.1253 112.975 52.2107 112.804 52.328C112.634 52.4453 112.495 52.5947 112.388 52.776C112.292 52.9573 112.244 53.1653 112.244 53.4V59H110.5V47.16ZM124.062 49.24C123.614 49.24 123.299 49.1493 123.118 48.968C122.947 48.7867 122.862 48.5627 122.862 48.296V47.96C122.862 47.6933 122.947 47.4693 123.118 47.288C123.299 47.1067 123.609 47.016 124.046 47.016C124.494 47.016 124.803 47.1067 124.974 47.288C125.155 47.4693 125.246 47.6933 125.246 47.96V48.296C125.246 48.5627 125.155 48.7867 124.974 48.968C124.803 49.1493 124.499 49.24 124.062 49.24ZM120.366 57.592H123.182V52.152H120.366V50.744H124.926V57.592H127.566V59H120.366V57.592ZM133.64 59C132.914 59 132.381 58.808 132.04 58.424C131.698 58.0293 131.528 57.5227 131.528 56.904V52.152H128.984V50.744H130.792C131.101 50.744 131.32 50.6853 131.448 50.568C131.576 50.44 131.64 50.216 131.64 49.896V47.832H133.272V50.744H136.792V52.152H133.272V57.592H136.792V59H133.64ZM142.914 59.192C142.284 59.192 141.719 59.0907 141.218 58.888C140.716 58.6853 140.295 58.3973 139.954 58.024C139.612 57.6507 139.351 57.2027 139.17 56.68C138.988 56.1467 138.898 55.5493 138.898 54.888C138.898 54.2267 138.988 53.6293 139.17 53.096C139.362 52.5627 139.623 52.1093 139.954 51.736C140.295 51.352 140.706 51.0587 141.186 50.856C141.666 50.6533 142.199 50.552 142.786 50.552C143.362 50.552 143.884 50.6533 144.354 50.856C144.823 51.048 145.223 51.3253 145.554 51.688C145.884 52.0507 146.135 52.4827 146.306 52.984C146.487 53.4853 146.578 54.04 146.578 54.648V55.304H140.658V55.576C140.658 56.2267 140.86 56.76 141.266 57.176C141.671 57.5813 142.231 57.784 142.946 57.784C143.479 57.784 143.932 57.672 144.306 57.448C144.69 57.2133 144.999 56.904 145.234 56.52L146.322 57.48C146.044 57.96 145.618 58.3653 145.042 58.696C144.476 59.0267 143.767 59.192 142.914 59.192ZM142.786 51.88C142.476 51.88 142.188 51.9333 141.922 52.04C141.666 52.1467 141.442 52.3013 141.25 52.504C141.068 52.696 140.924 52.9253 140.818 53.192C140.711 53.4587 140.658 53.752 140.658 54.072V54.184H144.802V54.024C144.802 53.3733 144.615 52.856 144.242 52.472C143.879 52.0773 143.394 51.88 142.786 51.88Z" fill="white"/>
<rect x="42" y="73" width="214" height="133" fill="#FEFCFD"/>
<path d="M44.16 229.688H42.208V228.344H44.4L44.72 226.488H42.8V225.144H44.96L45.552 221.832H47.008L45.04 233H43.584L44.16 229.688ZM48.56 221.832H50.016L49.44 225.144H51.392V226.488H49.2L48.88 228.344H50.8V229.688H48.64L48.048 233H46.592L48.56 221.832ZM52.9698 233V221.832H60.1538V223.336H54.7618V226.584H59.6578V228.088H54.7618V233H52.9698ZM62.5635 233V221.832H69.5555V223.336H64.3555V226.584H69.3635V228.088H64.3555V231.496H69.5555V233H62.5635ZM72.1573 233V221.832H79.3413V223.336H73.9493V226.584H78.8453V228.088H73.9493V233H72.1573ZM85.495 233.192C84.0763 233.192 83.0203 232.691 82.327 231.688C81.6443 230.685 81.303 229.261 81.303 227.416C81.303 225.571 81.6443 224.147 82.327 223.144C83.0203 222.141 84.0763 221.64 85.495 221.64C86.039 221.64 86.5083 221.715 86.903 221.864C87.3083 222.003 87.655 222.2 87.943 222.456C88.231 222.701 88.471 222.995 88.663 223.336C88.8657 223.667 89.031 224.024 89.159 224.408L87.543 224.952C87.4577 224.696 87.3617 224.456 87.255 224.232C87.1483 224.008 87.015 223.816 86.855 223.656C86.695 223.496 86.503 223.368 86.279 223.272C86.0657 223.176 85.799 223.128 85.479 223.128C84.6897 223.128 84.1137 223.432 83.751 224.04C83.3883 224.637 83.207 225.448 83.207 226.472V228.36C83.207 229.384 83.3883 230.2 83.751 230.808C84.1137 231.405 84.6897 231.704 85.479 231.704C85.799 231.704 86.0657 231.656 86.279 231.56C86.503 231.464 86.695 231.336 86.855 231.176C87.015 231.016 87.1483 230.824 87.255 230.6C87.3617 230.376 87.4577 230.136 87.543 229.88L89.159 230.424C89.031 230.808 88.8657 231.171 88.663 231.512C88.471 231.843 88.231 232.136 87.943 232.392C87.655 232.637 87.3083 232.835 86.903 232.984C86.5083 233.123 86.039 233.192 85.495 233.192ZM91.3448 233V221.832H98.5288V223.336H93.1368V226.584H98.0328V228.088H93.1368V233H91.3448ZM100.875 221.832H104.203C105.632 221.832 106.688 222.307 107.371 223.256C108.064 224.205 108.411 225.592 108.411 227.416C108.411 229.24 108.064 230.627 107.371 231.576C106.688 232.525 105.632 233 104.203 233H100.875V221.832ZM104.091 231.528C104.912 231.528 105.52 231.256 105.915 230.712C106.32 230.157 106.523 229.368 106.523 228.344V226.488C106.523 225.464 106.32 224.68 105.915 224.136C105.52 223.581 104.912 223.304 104.091 223.304H102.651V231.528H104.091Z" fill="white"/>
<path d="M286.12 53.656L286.168 50.296H286.04L283.8 56.04L281.56 50.296H281.432L281.48 53.656V59H279.896V47.832H282.088L283.8 52.264H283.912L285.64 47.832H287.704V59H286.12V53.656ZM296.466 59C295.964 59 295.586 58.872 295.33 58.616C295.084 58.36 294.935 58.024 294.882 57.608H294.802C294.642 58.1093 294.348 58.4987 293.922 58.776C293.506 59.0533 292.972 59.192 292.322 59.192C291.479 59.192 290.807 58.9733 290.306 58.536C289.804 58.088 289.554 57.4747 289.554 56.696C289.554 55.896 289.847 55.288 290.434 54.872C291.031 54.4453 291.943 54.232 293.17 54.232H294.754V53.592C294.754 52.472 294.162 51.912 292.978 51.912C292.444 51.912 292.012 52.0187 291.682 52.232C291.351 52.4347 291.074 52.7067 290.85 53.048L289.81 52.2C290.044 51.752 290.439 51.368 290.994 51.048C291.548 50.7173 292.263 50.552 293.138 50.552C294.183 50.552 295.004 50.8027 295.602 51.304C296.199 51.8053 296.498 52.5307 296.498 53.48V57.624H297.538V59H296.466ZM292.818 57.912C293.383 57.912 293.847 57.784 294.21 57.528C294.572 57.272 294.754 56.9413 294.754 56.536V55.336H293.202C291.943 55.336 291.314 55.7147 291.314 56.472V56.792C291.314 57.1653 291.447 57.448 291.714 57.64C291.98 57.8213 292.348 57.912 292.818 57.912ZM299.532 59V50.744H301.276V52.152H301.356C301.441 51.9387 301.548 51.736 301.676 51.544C301.814 51.3413 301.98 51.1707 302.172 51.032C302.364 50.8827 302.588 50.7653 302.844 50.68C303.1 50.5947 303.398 50.552 303.74 50.552C304.572 50.552 305.244 50.824 305.756 51.368C306.268 51.912 306.524 52.6853 306.524 53.688V59H304.78V53.944C304.78 52.632 304.209 51.976 303.068 51.976C302.844 51.976 302.625 52.008 302.411 52.072C302.198 52.1253 302.006 52.2107 301.836 52.328C301.665 52.4453 301.526 52.5947 301.42 52.776C301.324 52.9573 301.276 53.1653 301.276 53.4V59H299.532ZM313.077 59C312.352 59 311.819 58.808 311.477 58.424C311.136 58.0293 310.965 57.5227 310.965 56.904V52.152H308.421V50.744H310.229C310.539 50.744 310.757 50.6853 310.885 50.568C311.013 50.44 311.077 50.216 311.077 49.896V47.832H312.709V50.744H316.229V52.152H312.709V57.592H316.229V59H313.077ZM325.247 59C324.746 59 324.367 58.872 324.111 58.616C323.866 58.36 323.716 58.024 323.663 57.608H323.583C323.423 58.1093 323.13 58.4987 322.703 58.776C322.287 59.0533 321.754 59.192 321.103 59.192C320.26 59.192 319.588 58.9733 319.087 58.536C318.586 58.088 318.335 57.4747 318.335 56.696C318.335 55.896 318.628 55.288 319.215 54.872C319.812 54.4453 320.724 54.232 321.951 54.232H323.535V53.592C323.535 52.472 322.943 51.912 321.759 51.912C321.226 51.912 320.794 52.0187 320.463 52.232C320.132 52.4347 319.855 52.7067 319.631 53.048L318.591 52.2C318.826 51.752 319.22 51.368 319.775 51.048C320.33 50.7173 321.044 50.552 321.919 50.552C322.964 50.552 323.786 50.8027 324.383 51.304C324.98 51.8053 325.279 52.5307 325.279 53.48V57.624H326.319V59H325.247ZM321.599 57.912C322.164 57.912 322.628 57.784 322.991 57.528C323.354 57.272 323.535 56.9413 323.535 56.536V55.336H321.983C320.724 55.336 320.095 55.7147 320.095 56.472V56.792C320.095 57.1653 320.228 57.448 320.495 57.64C320.762 57.8213 321.13 57.912 321.599 57.912ZM337.891 47.832H341.747C342.76 47.832 343.544 48.0933 344.099 48.616C344.664 49.1387 344.947 49.8533 344.947 50.76C344.947 51.4107 344.787 51.928 344.467 52.312C344.147 52.696 343.715 52.968 343.171 53.128V53.208C343.821 53.3573 344.344 53.6453 344.739 54.072C345.133 54.488 345.331 55.08 345.331 55.848C345.331 56.3067 345.256 56.728 345.107 57.112C344.957 57.496 344.744 57.832 344.467 58.12C344.189 58.3973 343.853 58.616 343.459 58.776C343.075 58.9253 342.648 59 342.179 59H337.891V47.832ZM341.635 57.624C342.232 57.624 342.691 57.5013 343.011 57.256C343.331 57.0107 343.491 56.616 343.491 56.072V55.496C343.491 54.952 343.331 54.5573 343.011 54.312C342.691 54.0667 342.232 53.944 341.635 53.944H339.651V57.624H341.635ZM341.379 52.632C341.944 52.632 342.371 52.5253 342.659 52.312C342.957 52.088 343.107 51.72 343.107 51.208V50.632C343.107 50.12 342.957 49.7573 342.659 49.544C342.371 49.32 341.944 49.208 341.379 49.208H339.651V52.632H341.379ZM347.356 57.592H350.092V48.568H347.356V47.16H351.836V57.592H354.572V59H347.356V57.592ZM363.622 59C363.121 59 362.742 58.872 362.486 58.616C362.241 58.36 362.091 58.024 362.038 57.608H361.958C361.798 58.1093 361.505 58.4987 361.078 58.776C360.662 59.0533 360.129 59.192 359.478 59.192C358.635 59.192 357.963 58.9733 357.462 58.536C356.961 58.088 356.71 57.4747 356.71 56.696C356.71 55.896 357.003 55.288 357.59 54.872C358.187 54.4453 359.099 54.232 360.326 54.232H361.91V53.592C361.91 52.472 361.318 51.912 360.134 51.912C359.601 51.912 359.169 52.0187 358.838 52.232C358.507 52.4347 358.23 52.7067 358.006 53.048L356.966 52.2C357.201 51.752 357.595 51.368 358.15 51.048C358.705 50.7173 359.419 50.552 360.294 50.552C361.339 50.552 362.161 50.8027 362.758 51.304C363.355 51.8053 363.654 52.5307 363.654 53.48V57.624H364.694V59H363.622ZM359.974 57.912C360.539 57.912 361.003 57.784 361.366 57.528C361.729 57.272 361.91 56.9413 361.91 56.536V55.336H360.358C359.099 55.336 358.47 55.7147 358.47 56.472V56.792C358.47 57.1653 358.603 57.448 358.87 57.64C359.137 57.8213 359.505 57.912 359.974 57.912ZM370.448 59.192C369.829 59.192 369.274 59.0907 368.784 58.888C368.304 58.6853 367.893 58.3973 367.552 58.024C367.221 57.6507 366.965 57.1973 366.784 56.664C366.613 56.1307 366.528 55.5333 366.528 54.872C366.528 54.2107 366.613 53.6133 366.784 53.08C366.965 52.5467 367.221 52.0933 367.552 51.72C367.893 51.3467 368.304 51.0587 368.784 50.856C369.274 50.6533 369.824 50.552 370.432 50.552C371.285 50.552 371.968 50.7333 372.48 51.096C373.002 51.4587 373.392 51.928 373.648 52.504L372.288 53.24C372.138 52.856 371.909 52.552 371.6 52.328C371.301 52.104 370.912 51.992 370.432 51.992C369.77 51.992 369.258 52.1947 368.896 52.6C368.533 52.9947 368.352 53.5227 368.352 54.184V55.56C368.352 56.2107 368.533 56.7387 368.896 57.144C369.258 57.5493 369.781 57.752 370.464 57.752C370.976 57.752 371.392 57.6347 371.712 57.4C372.042 57.1653 372.304 56.8453 372.496 56.44L373.776 57.224C373.509 57.8 373.104 58.2747 372.56 58.648C372.016 59.0107 371.312 59.192 370.448 59.192ZM376.346 47.16H378.09V54.312H378.17L379.466 52.984L381.786 50.744H383.85L380.506 53.992L384.218 59H382.122L379.242 54.984L378.09 56.056V59H376.346V47.16Z" fill="white"/>
<rect x="279" y="73" width="214" height="133" fill="#1F2326"/>
<path d="M281.16 229.688H279.208V228.344H281.4L281.72 226.488H279.8V225.144H281.96L282.552 221.832H284.008L282.04 233H280.584L281.16 229.688ZM285.56 221.832H287.016L286.44 225.144H288.392V226.488H286.2L285.88 228.344H287.8V229.688H285.64L285.048 233H283.592L285.56 221.832ZM290.002 233V231.512H293.138V223.144H293.01L290.418 225.912L289.314 224.92L292.162 221.832H294.93V231.512H297.634V233H290.002ZM299.564 233V221.832H306.748V223.336H301.356V226.584H306.252V228.088H301.356V233H299.564ZM316.501 233H308.789V231.288L312.437 228.104C313.013 227.592 313.456 227.107 313.765 226.648C314.085 226.189 314.245 225.704 314.245 225.192V225.016C314.245 224.429 314.085 223.981 313.765 223.672C313.445 223.352 312.981 223.192 312.373 223.192C311.755 223.192 311.275 223.357 310.933 223.688C310.603 224.019 310.363 224.44 310.213 224.952L308.645 224.36C308.752 224.008 308.907 223.672 309.109 223.352C309.312 223.021 309.568 222.728 309.877 222.472C310.197 222.216 310.571 222.013 310.997 221.864C311.435 221.715 311.936 221.64 312.501 221.64C313.077 221.64 313.589 221.725 314.037 221.896C314.496 222.056 314.88 222.28 315.189 222.568C315.499 222.856 315.733 223.203 315.893 223.608C316.053 224.003 316.133 224.44 316.133 224.92C316.133 225.368 316.064 225.784 315.925 226.168C315.797 226.541 315.611 226.904 315.365 227.256C315.131 227.597 314.848 227.928 314.517 228.248C314.187 228.568 313.824 228.888 313.429 229.208L310.725 231.48H316.501V233ZM321.711 226.44C322.426 226.44 322.954 226.291 323.295 225.992C323.647 225.683 323.823 225.299 323.823 224.84V224.728C323.823 224.216 323.652 223.827 323.311 223.56C322.98 223.283 322.532 223.144 321.967 223.144C321.423 223.144 320.959 223.267 320.575 223.512C320.202 223.757 319.887 224.093 319.631 224.52L318.415 223.48C318.586 223.235 318.783 223 319.007 222.776C319.231 222.552 319.487 222.36 319.775 222.2C320.063 222.029 320.394 221.896 320.767 221.8C321.14 221.693 321.562 221.64 322.031 221.64C322.554 221.64 323.039 221.704 323.487 221.832C323.935 221.96 324.324 222.152 324.655 222.408C324.986 222.653 325.242 222.957 325.423 223.32C325.604 223.672 325.695 224.072 325.695 224.52C325.695 224.872 325.636 225.192 325.519 225.48C325.412 225.768 325.258 226.024 325.055 226.248C324.863 226.461 324.634 226.637 324.367 226.776C324.1 226.915 323.818 227.016 323.519 227.08V227.16C323.839 227.224 324.143 227.331 324.431 227.48C324.719 227.619 324.975 227.805 325.199 228.04C325.423 228.264 325.599 228.536 325.727 228.856C325.855 229.165 325.919 229.523 325.919 229.928C325.919 230.419 325.823 230.867 325.631 231.272C325.439 231.667 325.162 232.008 324.799 232.296C324.447 232.584 324.02 232.808 323.519 232.968C323.018 233.117 322.458 233.192 321.839 233.192C321.316 233.192 320.852 233.133 320.447 233.016C320.052 232.909 319.7 232.765 319.391 232.584C319.082 232.392 318.81 232.179 318.575 231.944C318.351 231.699 318.154 231.448 317.983 231.192L319.311 230.168C319.588 230.616 319.914 230.984 320.287 231.272C320.671 231.549 321.194 231.688 321.855 231.688C322.559 231.688 323.098 231.528 323.471 231.208C323.844 230.877 324.031 230.424 324.031 229.848V229.72C324.031 229.144 323.834 228.707 323.439 228.408C323.055 228.099 322.495 227.944 321.759 227.944H320.559V226.44H321.711ZM335.689 233H327.977V231.288L331.625 228.104C332.201 227.592 332.643 227.107 332.953 226.648C333.273 226.189 333.433 225.704 333.433 225.192V225.016C333.433 224.429 333.273 223.981 332.953 223.672C332.633 223.352 332.169 223.192 331.561 223.192C330.942 223.192 330.462 223.357 330.121 223.688C329.79 224.019 329.55 224.44 329.401 224.952L327.833 224.36C327.939 224.008 328.094 223.672 328.297 223.352C328.499 223.021 328.755 222.728 329.065 222.472C329.385 222.216 329.758 222.013 330.185 221.864C330.622 221.715 331.123 221.64 331.689 221.64C332.265 221.64 332.777 221.725 333.225 221.896C333.683 222.056 334.067 222.28 334.377 222.568C334.686 222.856 334.921 223.203 335.081 223.608C335.241 224.003 335.321 224.44 335.321 224.92C335.321 225.368 335.251 225.784 335.113 226.168C334.985 226.541 334.798 226.904 334.553 227.256C334.318 227.597 334.035 227.928 333.705 228.248C333.374 228.568 333.011 228.888 332.617 229.208L329.913 231.48H335.689V233ZM341.395 233.192C340.765 233.192 340.205 233.091 339.715 232.888C339.224 232.685 338.808 232.397 338.467 232.024C338.125 231.64 337.864 231.181 337.683 230.648C337.501 230.115 337.411 229.512 337.411 228.84C337.411 228.029 337.533 227.267 337.779 226.552C338.024 225.837 338.344 225.181 338.739 224.584C339.133 223.987 339.571 223.459 340.051 223C340.531 222.531 341.005 222.141 341.475 221.832H343.875C343.235 222.291 342.659 222.733 342.147 223.16C341.635 223.587 341.187 224.024 340.803 224.472C340.429 224.92 340.115 225.395 339.859 225.896C339.603 226.387 339.405 226.936 339.267 227.544L339.379 227.576C339.496 227.352 339.635 227.144 339.795 226.952C339.955 226.749 340.141 226.573 340.355 226.424C340.568 226.275 340.813 226.157 341.091 226.072C341.368 225.987 341.683 225.944 342.035 225.944C342.515 225.944 342.957 226.024 343.363 226.184C343.768 226.344 344.12 226.579 344.419 226.888C344.717 227.187 344.947 227.549 345.107 227.976C345.277 228.403 345.363 228.883 345.363 229.416C345.363 229.971 345.267 230.483 345.075 230.952C344.893 231.411 344.627 231.805 344.275 232.136C343.933 232.467 343.517 232.728 343.027 232.92C342.536 233.101 341.992 233.192 341.395 233.192ZM341.379 231.752C342.061 231.752 342.589 231.571 342.963 231.208C343.336 230.835 343.523 230.312 343.523 229.64V229.48C343.523 228.808 343.336 228.291 342.963 227.928C342.589 227.555 342.061 227.368 341.379 227.368C340.707 227.368 340.184 227.555 339.811 227.928C339.437 228.291 339.251 228.808 339.251 229.48V229.64C339.251 230.312 339.437 230.835 339.811 231.208C340.184 231.571 340.707 231.752 341.379 231.752Z" fill="white"/>
<rect x="42" y="260" width="135" height="133" fill="#29CCB9"/>
<path d="M44.16 416.688H42.208V415.344H44.4L44.72 413.488H42.8V412.144H44.96L45.552 408.832H47.008L45.04 420H43.584L44.16 416.688ZM48.56 408.832H50.016L49.44 412.144H51.392V413.488H49.2L48.88 415.344H50.8V416.688H48.64L48.048 420H46.592L48.56 408.832ZM60.3138 420H52.6018V418.288L56.2498 415.104C56.8258 414.592 57.2684 414.107 57.5778 413.648C57.8978 413.189 58.0578 412.704 58.0578 412.192V412.016C58.0578 411.429 57.8978 410.981 57.5778 410.672C57.2578 410.352 56.7938 410.192 56.1858 410.192C55.5671 410.192 55.0871 410.357 54.7458 410.688C54.4151 411.019 54.1751 411.44 54.0258 411.952L52.4578 411.36C52.5644 411.008 52.7191 410.672 52.9218 410.352C53.1244 410.021 53.3804 409.728 53.6898 409.472C54.0098 409.216 54.3831 409.013 54.8098 408.864C55.2471 408.715 55.7484 408.64 56.3138 408.64C56.8898 408.64 57.4018 408.725 57.8498 408.896C58.3084 409.056 58.6924 409.28 59.0018 409.568C59.3111 409.856 59.5458 410.203 59.7058 410.608C59.8658 411.003 59.9458 411.44 59.9458 411.92C59.9458 412.368 59.8764 412.784 59.7378 413.168C59.6098 413.541 59.4231 413.904 59.1778 414.256C58.9431 414.597 58.6604 414.928 58.3298 415.248C57.9991 415.568 57.6364 415.888 57.2418 416.208L54.5378 418.48H60.3138V420ZM69.9395 412.992C69.9395 413.803 69.8168 414.565 69.5715 415.28C69.3262 415.995 69.0062 416.651 68.6115 417.248C68.2168 417.845 67.7795 418.379 67.2995 418.848C66.8195 419.317 66.3448 419.701 65.8755 420H63.4755C64.1155 419.541 64.6915 419.099 65.2035 418.672C65.7155 418.245 66.1582 417.808 66.5315 417.36C66.9155 416.912 67.2355 416.443 67.4915 415.952C67.7475 415.451 67.9448 414.896 68.0835 414.288L67.9715 414.256C67.8542 414.48 67.7155 414.693 67.5555 414.896C67.3955 415.088 67.2088 415.259 66.9955 415.408C66.7822 415.557 66.5368 415.675 66.2595 415.76C65.9822 415.845 65.6675 415.888 65.3155 415.888C64.8355 415.888 64.3928 415.808 63.9875 415.648C63.5822 415.488 63.2302 415.259 62.9315 414.96C62.6328 414.651 62.3982 414.283 62.2275 413.856C62.0675 413.429 61.9875 412.949 61.9875 412.416C61.9875 411.861 62.0782 411.355 62.2595 410.896C62.4515 410.427 62.7182 410.027 63.0595 409.696C63.4115 409.365 63.8328 409.109 64.3235 408.928C64.8142 408.736 65.3582 408.64 65.9555 408.64C66.5742 408.64 67.1288 408.741 67.6195 408.944C68.1208 409.147 68.5422 409.44 68.8835 409.824C69.2248 410.197 69.4862 410.651 69.6675 411.184C69.8488 411.717 69.9395 412.32 69.9395 412.992ZM65.9715 414.464C66.6435 414.464 67.1662 414.283 67.5395 413.92C67.9128 413.547 68.0995 413.024 68.0995 412.352V412.192C68.0995 411.52 67.9128 411.003 67.5395 410.64C67.1662 410.267 66.6435 410.08 65.9715 410.08C65.2888 410.08 64.7608 410.267 64.3875 410.64C64.0142 411.003 63.8275 411.52 63.8275 412.192V412.352C63.8275 413.024 64.0142 413.547 64.3875 413.92C64.7608 414.283 65.2888 414.464 65.9715 414.464ZM75.9013 420.192C74.4826 420.192 73.4266 419.691 72.7333 418.688C72.0506 417.685 71.7093 416.261 71.7093 414.416C71.7093 412.571 72.0506 411.147 72.7333 410.144C73.4266 409.141 74.4826 408.64 75.9013 408.64C76.4453 408.64 76.9146 408.715 77.3093 408.864C77.7146 409.003 78.0613 409.2 78.3493 409.456C78.6373 409.701 78.8773 409.995 79.0693 410.336C79.2719 410.667 79.4373 411.024 79.5653 411.408L77.9493 411.952C77.8639 411.696 77.7679 411.456 77.6613 411.232C77.5546 411.008 77.4213 410.816 77.2613 410.656C77.1013 410.496 76.9093 410.368 76.6853 410.272C76.4719 410.176 76.2053 410.128 75.8853 410.128C75.0959 410.128 74.5199 410.432 74.1573 411.04C73.7946 411.637 73.6133 412.448 73.6133 413.472V415.36C73.6133 416.384 73.7946 417.2 74.1573 417.808C74.5199 418.405 75.0959 418.704 75.8853 418.704C76.2053 418.704 76.4719 418.656 76.6853 418.56C76.9093 418.464 77.1013 418.336 77.2613 418.176C77.4213 418.016 77.5546 417.824 77.6613 417.6C77.7679 417.376 77.8639 417.136 77.9493 416.88L79.5653 417.424C79.4373 417.808 79.2719 418.171 79.0693 418.512C78.8773 418.843 78.6373 419.136 78.3493 419.392C78.0613 419.637 77.7146 419.835 77.3093 419.984C76.9146 420.123 76.4453 420.192 75.9013 420.192ZM85.495 420.192C84.0763 420.192 83.0203 419.691 82.327 418.688C81.6443 417.685 81.303 416.261 81.303 414.416C81.303 412.571 81.6443 411.147 82.327 410.144C83.0203 409.141 84.0763 408.64 85.495 408.64C86.039 408.64 86.5083 408.715 86.903 408.864C87.3083 409.003 87.655 409.2 87.943 409.456C88.231 409.701 88.471 409.995 88.663 410.336C88.8657 410.667 89.031 411.024 89.159 411.408L87.543 411.952C87.4577 411.696 87.3617 411.456 87.255 411.232C87.1483 411.008 87.015 410.816 86.855 410.656C86.695 410.496 86.503 410.368 86.279 410.272C86.0657 410.176 85.799 410.128 85.479 410.128C84.6897 410.128 84.1137 410.432 83.751 411.04C83.3883 411.637 83.207 412.448 83.207 413.472V415.36C83.207 416.384 83.3883 417.2 83.751 417.808C84.1137 418.405 84.6897 418.704 85.479 418.704C85.799 418.704 86.0657 418.656 86.279 418.56C86.503 418.464 86.695 418.336 86.855 418.176C87.015 418.016 87.1483 417.824 87.255 417.6C87.3617 417.376 87.4577 417.136 87.543 416.88L89.159 417.424C89.031 417.808 88.8657 418.171 88.663 418.512C88.471 418.843 88.231 419.136 87.943 419.392C87.655 419.637 87.3083 419.835 86.903 419.984C86.5083 420.123 86.039 420.192 85.495 420.192ZM91.2968 408.832H95.1528C96.1661 408.832 96.9501 409.093 97.5048 409.616C98.0701 410.139 98.3528 410.853 98.3528 411.76C98.3528 412.411 98.1928 412.928 97.8728 413.312C97.5528 413.696 97.1208 413.968 96.5768 414.128V414.208C97.2274 414.357 97.7501 414.645 98.1448 415.072C98.5394 415.488 98.7368 416.08 98.7368 416.848C98.7368 417.307 98.6621 417.728 98.5128 418.112C98.3634 418.496 98.1501 418.832 97.8728 419.12C97.5954 419.397 97.2594 419.616 96.8648 419.776C96.4808 419.925 96.0541 420 95.5848 420H91.2968V408.832ZM95.0408 418.624C95.6381 418.624 96.0968 418.501 96.4168 418.256C96.7368 418.011 96.8968 417.616 96.8968 417.072V416.496C96.8968 415.952 96.7368 415.557 96.4168 415.312C96.0968 415.067 95.6381 414.944 95.0408 414.944H93.0568V418.624H95.0408ZM94.7848 413.632C95.3501 413.632 95.7768 413.525 96.0648 413.312C96.3634 413.088 96.5128 412.72 96.5128 412.208V411.632C96.5128 411.12 96.3634 410.757 96.0648 410.544C95.7768 410.32 95.3501 410.208 94.7848 410.208H93.0568V413.632H94.7848ZM108.315 412.992C108.315 413.803 108.192 414.565 107.947 415.28C107.701 415.995 107.381 416.651 106.987 417.248C106.592 417.845 106.155 418.379 105.675 418.848C105.195 419.317 104.72 419.701 104.251 420H101.851C102.491 419.541 103.067 419.099 103.579 418.672C104.091 418.245 104.533 417.808 104.907 417.36C105.291 416.912 105.611 416.443 105.867 415.952C106.123 415.451 106.32 414.896 106.459 414.288L106.347 414.256C106.229 414.48 106.091 414.693 105.931 414.896C105.771 415.088 105.584 415.259 105.371 415.408C105.157 415.557 104.912 415.675 104.635 415.76C104.357 415.845 104.043 415.888 103.691 415.888C103.211 415.888 102.768 415.808 102.363 415.648C101.957 415.488 101.605 415.259 101.307 414.96C101.008 414.651 100.773 414.283 100.603 413.856C100.443 413.429 100.363 412.949 100.363 412.416C100.363 411.861 100.453 411.355 100.635 410.896C100.827 410.427 101.093 410.027 101.435 409.696C101.787 409.365 102.208 409.109 102.699 408.928C103.189 408.736 103.733 408.64 104.331 408.64C104.949 408.64 105.504 408.741 105.995 408.944C106.496 409.147 106.917 409.44 107.259 409.824C107.6 410.197 107.861 410.651 108.043 411.184C108.224 411.717 108.315 412.32 108.315 412.992ZM104.347 414.464C105.019 414.464 105.541 414.283 105.915 413.92C106.288 413.547 106.475 413.024 106.475 412.352V412.192C106.475 411.52 106.288 411.003 105.915 410.64C105.541 410.267 105.019 410.08 104.347 410.08C103.664 410.08 103.136 410.267 102.763 410.64C102.389 411.003 102.203 411.52 102.203 412.192V412.352C102.203 413.024 102.389 413.547 102.763 413.92C103.136 414.283 103.664 414.464 104.347 414.464Z" fill="white"/>
<path d="M44.16 447.688H42.208V446.344H44.4L44.72 444.488H42.8V443.144H44.96L45.552 439.832H47.008L45.04 451H43.584L44.16 447.688ZM48.56 439.832H50.016L49.44 443.144H51.392V444.488H49.2L48.88 446.344H50.8V447.688H48.64L48.048 451H46.592L48.56 439.832ZM60.3138 451H52.6018V449.288L56.2498 446.104C56.8258 445.592 57.2684 445.107 57.5778 444.648C57.8978 444.189 58.0578 443.704 58.0578 443.192V443.016C58.0578 442.429 57.8978 441.981 57.5778 441.672C57.2578 441.352 56.7938 441.192 56.1858 441.192C55.5671 441.192 55.0871 441.357 54.7458 441.688C54.4151 442.019 54.1751 442.44 54.0258 442.952L52.4578 442.36C52.5644 442.008 52.7191 441.672 52.9218 441.352C53.1244 441.021 53.3804 440.728 53.6898 440.472C54.0098 440.216 54.3831 440.013 54.8098 439.864C55.2471 439.715 55.7484 439.64 56.3138 439.64C56.8898 439.64 57.4018 439.725 57.8498 439.896C58.3084 440.056 58.6924 440.28 59.0018 440.568C59.3111 440.856 59.5458 441.203 59.7058 441.608C59.8658 442.003 59.9458 442.44 59.9458 442.92C59.9458 443.368 59.8764 443.784 59.7378 444.168C59.6098 444.541 59.4231 444.904 59.1778 445.256C58.9431 445.597 58.6604 445.928 58.3298 446.248C57.9991 446.568 57.6364 446.888 57.2418 447.208L54.5378 449.48H60.3138V451ZM69.9395 443.992C69.9395 444.803 69.8168 445.565 69.5715 446.28C69.3262 446.995 69.0062 447.651 68.6115 448.248C68.2168 448.845 67.7795 449.379 67.2995 449.848C66.8195 450.317 66.3448 450.701 65.8755 451H63.4755C64.1155 450.541 64.6915 450.099 65.2035 449.672C65.7155 449.245 66.1582 448.808 66.5315 448.36C66.9155 447.912 67.2355 447.443 67.4915 446.952C67.7475 446.451 67.9448 445.896 68.0835 445.288L67.9715 445.256C67.8542 445.48 67.7155 445.693 67.5555 445.896C67.3955 446.088 67.2088 446.259 66.9955 446.408C66.7822 446.557 66.5368 446.675 66.2595 446.76C65.9822 446.845 65.6675 446.888 65.3155 446.888C64.8355 446.888 64.3928 446.808 63.9875 446.648C63.5822 446.488 63.2302 446.259 62.9315 445.96C62.6328 445.651 62.3982 445.283 62.2275 444.856C62.0675 444.429 61.9875 443.949 61.9875 443.416C61.9875 442.861 62.0782 442.355 62.2595 441.896C62.4515 441.427 62.7182 441.027 63.0595 440.696C63.4115 440.365 63.8328 440.109 64.3235 439.928C64.8142 439.736 65.3582 439.64 65.9555 439.64C66.5742 439.64 67.1288 439.741 67.6195 439.944C68.1208 440.147 68.5422 440.44 68.8835 440.824C69.2248 441.197 69.4862 441.651 69.6675 442.184C69.8488 442.717 69.9395 443.32 69.9395 443.992ZM65.9715 445.464C66.6435 445.464 67.1662 445.283 67.5395 444.92C67.9128 444.547 68.0995 444.024 68.0995 443.352V443.192C68.0995 442.52 67.9128 442.003 67.5395 441.64C67.1662 441.267 66.6435 441.08 65.9715 441.08C65.2888 441.08 64.7608 441.267 64.3875 441.64C64.0142 442.003 63.8275 442.52 63.8275 443.192V443.352C63.8275 444.024 64.0142 444.547 64.3875 444.92C64.7608 445.283 65.2888 445.464 65.9715 445.464ZM75.9013 451.192C74.4826 451.192 73.4266 450.691 72.7333 449.688C72.0506 448.685 71.7093 447.261 71.7093 445.416C71.7093 443.571 72.0506 442.147 72.7333 441.144C73.4266 440.141 74.4826 439.64 75.9013 439.64C76.4453 439.64 76.9146 439.715 77.3093 439.864C77.7146 440.003 78.0613 440.2 78.3493 440.456C78.6373 440.701 78.8773 440.995 79.0693 441.336C79.2719 441.667 79.4373 442.024 79.5653 442.408L77.9493 442.952C77.8639 442.696 77.7679 442.456 77.6613 442.232C77.5546 442.008 77.4213 441.816 77.2613 441.656C77.1013 441.496 76.9093 441.368 76.6853 441.272C76.4719 441.176 76.2053 441.128 75.8853 441.128C75.0959 441.128 74.5199 441.432 74.1573 442.04C73.7946 442.637 73.6133 443.448 73.6133 444.472V446.36C73.6133 447.384 73.7946 448.2 74.1573 448.808C74.5199 449.405 75.0959 449.704 75.8853 449.704C76.2053 449.704 76.4719 449.656 76.6853 449.56C76.9093 449.464 77.1013 449.336 77.2613 449.176C77.4213 449.016 77.5546 448.824 77.6613 448.6C77.7679 448.376 77.8639 448.136 77.9493 447.88L79.5653 448.424C79.4373 448.808 79.2719 449.171 79.0693 449.512C78.8773 449.843 78.6373 450.136 78.3493 450.392C78.0613 450.637 77.7146 450.835 77.3093 450.984C76.9146 451.123 76.4453 451.192 75.9013 451.192ZM85.495 451.192C84.0763 451.192 83.0203 450.691 82.327 449.688C81.6443 448.685 81.303 447.261 81.303 445.416C81.303 443.571 81.6443 442.147 82.327 441.144C83.0203 440.141 84.0763 439.64 85.495 439.64C86.039 439.64 86.5083 439.715 86.903 439.864C87.3083 440.003 87.655 440.2 87.943 440.456C88.231 440.701 88.471 440.995 88.663 441.336C88.8657 441.667 89.031 442.024 89.159 442.408L87.543 442.952C87.4577 442.696 87.3617 442.456 87.255 442.232C87.1483 442.008 87.015 441.816 86.855 441.656C86.695 441.496 86.503 441.368 86.279 441.272C86.0657 441.176 85.799 441.128 85.479 441.128C84.6897 441.128 84.1137 441.432 83.751 442.04C83.3883 442.637 83.207 443.448 83.207 444.472V446.36C83.207 447.384 83.3883 448.2 83.751 448.808C84.1137 449.405 84.6897 449.704 85.479 449.704C85.799 449.704 86.0657 449.656 86.279 449.56C86.503 449.464 86.695 449.336 86.855 449.176C87.015 449.016 87.1483 448.824 87.255 448.6C87.3617 448.376 87.4577 448.136 87.543 447.88L89.159 448.424C89.031 448.808 88.8657 449.171 88.663 449.512C88.471 449.843 88.231 450.136 87.943 450.392C87.655 450.637 87.3083 450.835 86.903 450.984C86.5083 451.123 86.039 451.192 85.495 451.192ZM91.2968 439.832H95.1528C96.1661 439.832 96.9501 440.093 97.5048 440.616C98.0701 441.139 98.3528 441.853 98.3528 442.76C98.3528 443.411 98.1928 443.928 97.8728 444.312C97.5528 444.696 97.1208 444.968 96.5768 445.128V445.208C97.2274 445.357 97.7501 445.645 98.1448 446.072C98.5394 446.488 98.7368 447.08 98.7368 447.848C98.7368 448.307 98.6621 448.728 98.5128 449.112C98.3634 449.496 98.1501 449.832 97.8728 450.12C97.5954 450.397 97.2594 450.616 96.8648 450.776C96.4808 450.925 96.0541 451 95.5848 451H91.2968V439.832ZM95.0408 449.624C95.6381 449.624 96.0968 449.501 96.4168 449.256C96.7368 449.011 96.8968 448.616 96.8968 448.072V447.496C96.8968 446.952 96.7368 446.557 96.4168 446.312C96.0968 446.067 95.6381 445.944 95.0408 445.944H93.0568V449.624H95.0408ZM94.7848 444.632C95.3501 444.632 95.7768 444.525 96.0648 444.312C96.3634 444.088 96.5128 443.72 96.5128 443.208V442.632C96.5128 442.12 96.3634 441.757 96.0648 441.544C95.7768 441.32 95.3501 441.208 94.7848 441.208H93.0568V444.632H94.7848ZM108.315 443.992C108.315 444.803 108.192 445.565 107.947 446.28C107.701 446.995 107.381 447.651 106.987 448.248C106.592 448.845 106.155 449.379 105.675 449.848C105.195 450.317 104.72 450.701 104.251 451H101.851C102.491 450.541 103.067 450.099 103.579 449.672C104.091 449.245 104.533 448.808 104.907 448.36C105.291 447.912 105.611 447.443 105.867 446.952C106.123 446.451 106.32 445.896 106.459 445.288L106.347 445.256C106.229 445.48 106.091 445.693 105.931 445.896C105.771 446.088 105.584 446.259 105.371 446.408C105.157 446.557 104.912 446.675 104.635 446.76C104.357 446.845 104.043 446.888 103.691 446.888C103.211 446.888 102.768 446.808 102.363 446.648C101.957 446.488 101.605 446.259 101.307 445.96C101.008 445.651 100.773 445.283 100.603 444.856C100.443 444.429 100.363 443.949 100.363 443.416C100.363 442.861 100.453 442.355 100.635 441.896C100.827 441.427 101.093 441.027 101.435 440.696C101.787 440.365 102.208 440.109 102.699 439.928C103.189 439.736 103.733 439.64 104.331 439.64C104.949 439.64 105.504 439.741 105.995 439.944C106.496 440.147 106.917 440.44 107.259 440.824C107.6 441.197 107.861 441.651 108.043 442.184C108.224 442.717 108.315 443.32 108.315 443.992ZM104.347 445.464C105.019 445.464 105.541 445.283 105.915 444.92C106.288 444.547 106.475 444.024 106.475 443.352V443.192C106.475 442.52 106.288 442.003 105.915 441.64C105.541 441.267 105.019 441.08 104.347 441.08C103.664 441.08 103.136 441.267 102.763 441.64C102.389 442.003 102.203 442.52 102.203 443.192V443.352C102.203 444.024 102.389 444.547 102.763 444.92C103.136 445.283 103.664 445.464 104.347 445.464Z" fill="white"/>
<rect x="200" y="260" width="135" height="133" fill="#0091FF"/>
<path d="M202.16 416.688H200.208V415.344H202.4L202.72 413.488H200.8V412.144H202.96L203.552 408.832H205.008L203.04 420H201.584L202.16 416.688ZM206.56 408.832H208.016L207.44 412.144H209.392V413.488H207.2L206.88 415.344H208.8V416.688H206.64L206.048 420H204.592L206.56 408.832ZM214.394 420.192C213.69 420.192 213.076 420.064 212.554 419.808C212.042 419.541 211.615 419.163 211.274 418.672C210.943 418.181 210.698 417.579 210.538 416.864C210.378 416.149 210.298 415.333 210.298 414.416C210.298 413.509 210.378 412.699 210.538 411.984C210.698 411.259 210.943 410.651 211.274 410.16C211.615 409.669 212.042 409.296 212.554 409.04C213.076 408.773 213.69 408.64 214.394 408.64C215.098 408.64 215.706 408.773 216.218 409.04C216.74 409.296 217.167 409.669 217.498 410.16C217.839 410.651 218.09 411.259 218.25 411.984C218.41 412.699 218.49 413.509 218.49 414.416C218.49 415.333 218.41 416.149 218.25 416.864C218.09 417.579 217.839 418.181 217.498 418.672C217.167 419.163 216.74 419.541 216.218 419.808C215.706 420.064 215.098 420.192 214.394 420.192ZM214.394 418.72C215.204 418.72 215.78 418.421 216.122 417.824C216.474 417.216 216.65 416.4 216.65 415.376V413.456C216.65 412.432 216.474 411.621 216.122 411.024C215.78 410.416 215.204 410.112 214.394 410.112C213.988 410.112 213.642 410.192 213.354 410.352C213.066 410.501 212.831 410.725 212.65 411.024C212.468 411.312 212.335 411.664 212.25 412.08C212.175 412.485 212.138 412.944 212.138 413.456V415.376C212.138 415.888 212.175 416.352 212.25 416.768C212.335 417.173 212.468 417.525 212.65 417.824C212.831 418.112 213.066 418.336 213.354 418.496C213.642 418.645 213.988 418.72 214.394 418.72ZM214.394 415.36C214.02 415.36 213.759 415.285 213.61 415.136C213.471 414.987 213.402 414.805 213.402 414.592V414.24C213.402 414.027 213.471 413.845 213.61 413.696C213.759 413.547 214.02 413.472 214.394 413.472C214.767 413.472 215.023 413.547 215.162 413.696C215.311 413.845 215.386 414.027 215.386 414.24V414.592C215.386 414.805 215.311 414.987 215.162 415.136C215.023 415.285 214.767 415.36 214.394 415.36ZM223.988 420.192C223.284 420.192 222.67 420.064 222.148 419.808C221.636 419.541 221.209 419.163 220.868 418.672C220.537 418.181 220.292 417.579 220.132 416.864C219.972 416.149 219.892 415.333 219.892 414.416C219.892 413.509 219.972 412.699 220.132 411.984C220.292 411.259 220.537 410.651 220.868 410.16C221.209 409.669 221.636 409.296 222.148 409.04C222.67 408.773 223.284 408.64 223.988 408.64C224.692 408.64 225.3 408.773 225.812 409.04C226.334 409.296 226.761 409.669 227.092 410.16C227.433 410.651 227.684 411.259 227.844 411.984C228.004 412.699 228.084 413.509 228.084 414.416C228.084 415.333 228.004 416.149 227.844 416.864C227.684 417.579 227.433 418.181 227.092 418.672C226.761 419.163 226.334 419.541 225.812 419.808C225.3 420.064 224.692 420.192 223.988 420.192ZM223.988 418.72C224.798 418.72 225.374 418.421 225.716 417.824C226.068 417.216 226.244 416.4 226.244 415.376V413.456C226.244 412.432 226.068 411.621 225.716 411.024C225.374 410.416 224.798 410.112 223.988 410.112C223.582 410.112 223.236 410.192 222.948 410.352C222.66 410.501 222.425 410.725 222.244 411.024C222.062 411.312 221.929 411.664 221.844 412.08C221.769 412.485 221.732 412.944 221.732 413.456V415.376C221.732 415.888 221.769 416.352 221.844 416.768C221.929 417.173 222.062 417.525 222.244 417.824C222.425 418.112 222.66 418.336 222.948 418.496C223.236 418.645 223.582 418.72 223.988 418.72ZM223.988 415.36C223.614 415.36 223.353 415.285 223.204 415.136C223.065 414.987 222.996 414.805 222.996 414.592V414.24C222.996 414.027 223.065 413.845 223.204 413.696C223.353 413.547 223.614 413.472 223.988 413.472C224.361 413.472 224.617 413.547 224.756 413.696C224.905 413.845 224.98 414.027 224.98 414.24V414.592C224.98 414.805 224.905 414.987 224.756 415.136C224.617 415.285 224.361 415.36 223.988 415.36ZM237.533 412.992C237.533 413.803 237.411 414.565 237.165 415.28C236.92 415.995 236.6 416.651 236.205 417.248C235.811 417.845 235.373 418.379 234.893 418.848C234.413 419.317 233.939 419.701 233.469 420H231.069C231.709 419.541 232.285 419.099 232.797 418.672C233.309 418.245 233.752 417.808 234.125 417.36C234.509 416.912 234.829 416.443 235.085 415.952C235.341 415.451 235.539 414.896 235.677 414.288L235.565 414.256C235.448 414.48 235.309 414.693 235.149 414.896C234.989 415.088 234.803 415.259 234.589 415.408C234.376 415.557 234.131 415.675 233.853 415.76C233.576 415.845 233.261 415.888 232.909 415.888C232.429 415.888 231.987 415.808 231.581 415.648C231.176 415.488 230.824 415.259 230.525 414.96C230.227 414.651 229.992 414.283 229.821 413.856C229.661 413.429 229.581 412.949 229.581 412.416C229.581 411.861 229.672 411.355 229.853 410.896C230.045 410.427 230.312 410.027 230.653 409.696C231.005 409.365 231.427 409.109 231.917 408.928C232.408 408.736 232.952 408.64 233.549 408.64C234.168 408.64 234.723 408.741 235.213 408.944C235.715 409.147 236.136 409.44 236.477 409.824C236.819 410.197 237.08 410.651 237.261 411.184C237.443 411.717 237.533 412.32 237.533 412.992ZM233.565 414.464C234.237 414.464 234.76 414.283 235.133 413.92C235.507 413.547 235.693 413.024 235.693 412.352V412.192C235.693 411.52 235.507 411.003 235.133 410.64C234.76 410.267 234.237 410.08 233.565 410.08C232.883 410.08 232.355 410.267 231.981 410.64C231.608 411.003 231.421 411.52 231.421 412.192V412.352C231.421 413.024 231.608 413.547 231.981 413.92C232.355 414.283 232.883 414.464 233.565 414.464ZM239.783 420V418.512H242.919V410.144H242.791L240.199 412.912L239.095 411.92L241.943 408.832H244.711V418.512H247.415V420H239.783ZM249.345 420V408.832H256.529V410.336H251.137V413.584H256.033V415.088H251.137V420H249.345ZM258.939 420V408.832H266.123V410.336H260.731V413.584H265.627V415.088H260.731V420H258.939Z" fill="white"/>
<rect x="358" y="260" width="135" height="133" fill="#FF66B7"/>
<path d="M360.16 416.688H358.208V415.344H360.4L360.72 413.488H358.8V412.144H360.96L361.552 408.832H363.008L361.04 420H359.584L360.16 416.688ZM364.56 408.832H366.016L365.44 412.144H367.392V413.488H365.2L364.88 415.344H366.8V416.688H364.64L364.048 420H362.592L364.56 408.832ZM368.97 420V408.832H376.154V410.336H370.762V413.584H375.658V415.088H370.762V420H368.97ZM378.564 420V408.832H385.748V410.336H380.356V413.584H385.252V415.088H380.356V420H378.564ZM391.613 420.192C390.984 420.192 390.424 420.091 389.933 419.888C389.443 419.685 389.027 419.397 388.685 419.024C388.344 418.64 388.083 418.181 387.901 417.648C387.72 417.115 387.629 416.512 387.629 415.84C387.629 415.029 387.752 414.267 387.997 413.552C388.243 412.837 388.563 412.181 388.957 411.584C389.352 410.987 389.789 410.459 390.269 410C390.749 409.531 391.224 409.141 391.693 408.832H394.093C393.453 409.291 392.877 409.733 392.365 410.16C391.853 410.587 391.405 411.024 391.021 411.472C390.648 411.92 390.333 412.395 390.077 412.896C389.821 413.387 389.624 413.936 389.485 414.544L389.597 414.576C389.715 414.352 389.853 414.144 390.013 413.952C390.173 413.749 390.36 413.573 390.573 413.424C390.787 413.275 391.032 413.157 391.309 413.072C391.587 412.987 391.901 412.944 392.253 412.944C392.733 412.944 393.176 413.024 393.581 413.184C393.987 413.344 394.339 413.579 394.637 413.888C394.936 414.187 395.165 414.549 395.325 414.976C395.496 415.403 395.581 415.883 395.581 416.416C395.581 416.971 395.485 417.483 395.293 417.952C395.112 418.411 394.845 418.805 394.493 419.136C394.152 419.467 393.736 419.728 393.245 419.92C392.755 420.101 392.211 420.192 391.613 420.192ZM391.597 418.752C392.28 418.752 392.808 418.571 393.181 418.208C393.555 417.835 393.741 417.312 393.741 416.64V416.48C393.741 415.808 393.555 415.291 393.181 414.928C392.808 414.555 392.28 414.368 391.597 414.368C390.925 414.368 390.403 414.555 390.029 414.928C389.656 415.291 389.469 415.808 389.469 416.48V416.64C389.469 417.312 389.656 417.835 390.029 418.208C390.403 418.571 390.925 418.752 391.597 418.752ZM401.207 420.192C400.578 420.192 400.018 420.091 399.527 419.888C399.036 419.685 398.62 419.397 398.279 419.024C397.938 418.64 397.676 418.181 397.495 417.648C397.314 417.115 397.223 416.512 397.223 415.84C397.223 415.029 397.346 414.267 397.591 413.552C397.836 412.837 398.156 412.181 398.551 411.584C398.946 410.987 399.383 410.459 399.863 410C400.343 409.531 400.818 409.141 401.287 408.832H403.687C403.047 409.291 402.471 409.733 401.959 410.16C401.447 410.587 400.999 411.024 400.615 411.472C400.242 411.92 399.927 412.395 399.671 412.896C399.415 413.387 399.218 413.936 399.079 414.544L399.191 414.576C399.308 414.352 399.447 414.144 399.607 413.952C399.767 413.749 399.954 413.573 400.167 413.424C400.38 413.275 400.626 413.157 400.903 413.072C401.18 412.987 401.495 412.944 401.847 412.944C402.327 412.944 402.77 413.024 403.175 413.184C403.58 413.344 403.932 413.579 404.231 413.888C404.53 414.187 404.759 414.549 404.919 414.976C405.09 415.403 405.175 415.883 405.175 416.416C405.175 416.971 405.079 417.483 404.887 417.952C404.706 418.411 404.439 418.805 404.087 419.136C403.746 419.467 403.33 419.728 402.839 419.92C402.348 420.101 401.804 420.192 401.207 420.192ZM401.191 418.752C401.874 418.752 402.402 418.571 402.775 418.208C403.148 417.835 403.335 417.312 403.335 416.64V416.48C403.335 415.808 403.148 415.291 402.775 414.928C402.402 414.555 401.874 414.368 401.191 414.368C400.519 414.368 399.996 414.555 399.623 414.928C399.25 415.291 399.063 415.808 399.063 416.48V416.64C399.063 417.312 399.25 417.835 399.623 418.208C399.996 418.571 400.519 418.752 401.191 418.752ZM407.297 408.832H411.153C412.166 408.832 412.95 409.093 413.505 409.616C414.07 410.139 414.353 410.853 414.353 411.76C414.353 412.411 414.193 412.928 413.873 413.312C413.553 413.696 413.121 413.968 412.577 414.128V414.208C413.227 414.357 413.75 414.645 414.145 415.072C414.539 415.488 414.737 416.08 414.737 416.848C414.737 417.307 414.662 417.728 414.513 418.112C414.363 418.496 414.15 418.832 413.873 419.12C413.595 419.397 413.259 419.616 412.865 419.776C412.481 419.925 412.054 420 411.585 420H407.297V408.832ZM411.041 418.624C411.638 418.624 412.097 418.501 412.417 418.256C412.737 418.011 412.897 417.616 412.897 417.072V416.496C412.897 415.952 412.737 415.557 412.417 415.312C412.097 415.067 411.638 414.944 411.041 414.944H409.057V418.624H411.041ZM410.785 413.632C411.35 413.632 411.777 413.525 412.065 413.312C412.363 413.088 412.513 412.72 412.513 412.208V411.632C412.513 411.12 412.363 410.757 412.065 410.544C411.777 410.32 411.35 410.208 410.785 410.208H409.057V413.632H410.785ZM418.267 420L422.411 410.32H418.059V412.384H416.507V408.832H424.203V410.4L420.171 420H418.267Z" fill="white"/>
<rect x="42" y="478" width="451" height="133" fill="url(#paint0_linear_430_4458)"/>
<defs>
<linearGradient id="paint0_linear_430_4458" x1="42" y1="478" x2="499.485" y2="506.348" gradientUnits="userSpaceOnUse">
<stop stop-color="#29CCB9"/>
<stop offset="0.494792" stop-color="#0091FF"/>
<stop offset="1" stop-color="#FF66B7"/>
</linearGradient>
</defs>
</svg>
