<svg version="1.1" xmlns="http://www.w3.org/2000/svg" x="0px" y="0px" viewBox="0 0 250 250" style="enable-background:new 0 0 250 250;">
<path style="fill-rule:evenodd;clip-rule:evenodd;" d="M250,198c-2.2-39.2-29.6-65.9-42.5-101.5c-1-19.3-0.3-43.8-12.1-60.3c-4.8,1-5.1,20.1-7.3,25.1
	c-5.9,0.1-9.7-7.9-18.6-8.9c-5.1-0.9-13.3,1.5-17.4-2c-0.8-4.7,15.8-21.5,9.7-23.1c-21.7,7.2-32.9,27.4-53,37.6
	c-27.2,8.8-59,11.8-83.7,25.9c-10.8,6.2-14.6,12.7-21.3,22c-1.6,2.3-5.1,7.1-3.4,10.8c32.5-0.8,66.1-14.4,95.4,6.1
	c27.1,15.7,8.9,62.4-15,70.8c-14.9,5.2-32.1,6.5-48.5,6.5c-6.5,0-5.7-0.1-11-0.4c-3-0.2-6.8,2.9-4.7,3.5c3.8,1.1,3.4,1,5.9,1.6
	c32.5,5,67.5,11.9,94.4-10c45.9-37.3,53.3-63.4,101.9-13.3c10.3,10.6,18.4,15,26.7,23.5C249.5,215.8,250.1,204,250,198z M142,61
	c3.1-4.7,10.5-0.1,6.9,4.9C145.5,70.6,139.2,65.2,142,61z M151.3,115.5c-10.1,22.1-24.3,41.8-36.2,62.2c-0.4-0.2-0.2-0.1-0.6-0.3
	c9.1-23.1,17.5-45.9,27.4-68.3c3.1-6.9,6.2-20.3,12.6-18.7C164.6,93,154.3,109,151.3,115.5z M183.3,82c-5.5,1.6-8.4-7-2.8-8.5
	C185.9,72,189,80,183.3,82z M1.8,133.6c41-12.7,119.5-12.2,91,47.3c-8.8-14.7,8.3-29.5-15.4-41.2C49.8,125.6,4.9,144,1.8,133.6z
	 M233.4,217.9c-30.8-19.4-48.6-72.4-87.4-25.7c-3.7,4.9-8.9,11.5-16.6,12.1c0-0.1,0-0.3,0-0.4c12.4-11.5,20.7-32,38-35.6
	c30.4-6.3,44.1,21.5,60.7,37C235.5,212.2,254.9,231.5,233.4,217.9z"/>
</svg>