<svg id="Layer_1" data-name="Layer 1" xmlns="http://www.w3.org/2000/svg" xmlns:xlink="http://www.w3.org/1999/xlink" viewBox="0 0 317.01 136.13"><defs><style>.cls-1{fill:url(#linear-gradient);}</style><linearGradient id="linear-gradient" x1="166.67" y1="84.22" x2="328.63" y2="84.22" gradientUnits="userSpaceOnUse"><stop offset="0" stop-color="#58b7ae"/><stop offset="1" stop-color="#398ca8"/></linearGradient></defs><image width="683" height="683" transform="scale(0.2)" xlink:href="Manta_logo_no_text.png"/><path class="cls-1" d="M186.43,55.27q.39,7.2.73,15H183.4c0-1.69-.07-3.52-.1-5.5s-.07-4-.11-6.11-.1-4.23-.14-6.39-.11-4.26-.17-6.3l-4.23,13.26h-3.38L170.94,46q0,3.06-.12,6.28c0,2.14-.09,4.28-.14,6.39s-.09,4.16-.14,6.13-.08,3.81-.11,5.5h-3.76q.14-3.57.32-7.33t.45-7.47c.17-2.48.38-4.92.61-7.33s.5-4.74.78-7h3.57L177,55.69l4.51-14.47h3.62Q186,48.08,186.43,55.27Zm5.76,12a6.68,6.68,0,0,1-.8-3.47,5.81,5.81,0,0,1,.82-3.18,6.68,6.68,0,0,1,2.11-2.09,9.43,9.43,0,0,1,3-1.15,16.52,16.52,0,0,1,3.36-.35,20,20,0,0,1,4.51.51V56.49a8.51,8.51,0,0,0-.21-1.9,4.24,4.24,0,0,0-.8-1.67,4.12,4.12,0,0,0-1.6-1.2,6.63,6.63,0,0,0-2.61-.44,19.08,19.08,0,0,0-3.52.28,18.27,18.27,0,0,0-2.31.56l-.47-3.19a10.72,10.72,0,0,1,2.66-.66,26.22,26.22,0,0,1,4-.28,12,12,0,0,1,4.11.61,7.08,7.08,0,0,1,2.71,1.69,6,6,0,0,1,1.45,2.63,12.94,12.94,0,0,1,.43,3.39V69.94c-.91.15-2.11.34-3.6.56a31.35,31.35,0,0,1-4.58.33,19,19,0,0,1-3.48-.31,8.9,8.9,0,0,1-3-1.08A5.78,5.78,0,0,1,192.19,67.3Zm3.15-3.52a3.09,3.09,0,0,0,1.43,2.94,7.77,7.77,0,0,0,3.88.82c1,0,1.84,0,2.61-.1s1.4-.14,1.9-.23V60.72a11.46,11.46,0,0,0-1.81-.37,16,16,0,0,0-2.23-.14,13.48,13.48,0,0,0-2.12.16,5.87,5.87,0,0,0-1.83.59,4,4,0,0,0-1.32,1.1A2.81,2.81,0,0,0,195.34,63.78ZM219.4,51.89c.66-.13,1.34-.23,2-.31a17.84,17.84,0,0,1,2-.11,7.34,7.34,0,0,1,2.09.28,3.58,3.58,0,0,1,1.65,1,5,5,0,0,1,1.06,2,12.9,12.9,0,0,1,.37,3.43V70.31h3.86V57.53c0-3.32-.75-5.74-2.24-7.24S226.54,48,223.63,48a29.1,29.1,0,0,0-3.92.29,39.38,39.38,0,0,0-4.21.79v21.2h3.9Zm23.83,10a20.27,20.27,0,0,0,.33,3.88,6.58,6.58,0,0,0,1.2,2.79,5.24,5.24,0,0,0,2.42,1.7,12,12,0,0,0,4,.56,11.65,11.65,0,0,0,3.55-.47c1-.31,1.65-.56,2.09-.75l-.56-3.29a11.22,11.22,0,0,1-2,.75,10.55,10.55,0,0,1-2.72.28,8.1,8.1,0,0,1-2.07-.23,2.81,2.81,0,0,1-1.39-.87,3.81,3.81,0,0,1-.77-1.67,12.21,12.21,0,0,1-.24-2.68V51.75h9.21V48.5h-9.21V41.74l-3.85.65V48.5h-4.61v3.25h4.61Zm19.46,5.4a6.68,6.68,0,0,1-.8-3.47,5.81,5.81,0,0,1,.82-3.18,6.68,6.68,0,0,1,2.11-2.09,9.43,9.43,0,0,1,3-1.15,16.52,16.52,0,0,1,3.36-.35,20,20,0,0,1,4.51.51V56.49a8.51,8.51,0,0,0-.21-1.9,4.24,4.24,0,0,0-.8-1.67,4.12,4.12,0,0,0-1.6-1.2,6.63,6.63,0,0,0-2.61-.44,19.08,19.08,0,0,0-3.52.28,18.27,18.27,0,0,0-2.31.56l-.47-3.19a10.72,10.72,0,0,1,2.66-.66,26.22,26.22,0,0,1,4-.28,12,12,0,0,1,4.11.61,7.08,7.08,0,0,1,2.71,1.69A6,6,0,0,1,279,52.92a12.94,12.94,0,0,1,.43,3.39V69.94c-.91.15-2.11.34-3.6.56a31.35,31.35,0,0,1-4.58.33,19,19,0,0,1-3.48-.31,8.9,8.9,0,0,1-3-1.08A5.78,5.78,0,0,1,262.69,67.3Zm3.15-3.52a3.09,3.09,0,0,0,1.43,2.94,7.77,7.77,0,0,0,3.88.82c1,0,1.84,0,2.61-.1s1.4-.14,1.9-.23V60.72a11.46,11.46,0,0,0-1.81-.37,16,16,0,0,0-2.23-.14,13.48,13.48,0,0,0-2.12.16,5.87,5.87,0,0,0-1.83.59,4,4,0,0,0-1.32,1.1A2.81,2.81,0,0,0,265.84,63.78ZM182.55,120c-.94-2.29-1.78-4.3-2.54-6s-1.52-3.43-2.32-5.07-1.68-3.35-2.63-5.1l-3.37-6.16h-3.94v29.09h3.52V103.49q1.32,2.51,2.59,5c.84,1.65,1.7,3.4,2.56,5.24s1.76,3.83,2.7,6,1.94,4.47,3,7.07h4V97.62h-3.53Zm25.1-12.85q2.4,2.74,2.4,8.34v1.36H194.44a7.2,7.2,0,0,0,2.24,5.15,8.22,8.22,0,0,0,5.61,1.76,16.23,16.23,0,0,0,3.53-.33,10.52,10.52,0,0,0,2.21-.7l.51,3.29a11.93,11.93,0,0,1-2.54.8,18.55,18.55,0,0,1-4.13.42,13.11,13.11,0,0,1-5-.87,9.88,9.88,0,0,1-3.55-2.37,9.74,9.74,0,0,1-2.11-3.6,14.1,14.1,0,0,1-.71-4.53,13.14,13.14,0,0,1,.9-5.08,10.36,10.36,0,0,1,2.34-3.57,9.82,9.82,0,0,1,3.29-2.12,10.44,10.44,0,0,1,3.76-.7A8.54,8.54,0,0,1,207.65,107.14Zm-1.55,6.55a6.34,6.34,0,0,0-1.46-4.39,4.92,4.92,0,0,0-3.85-1.62,5.84,5.84,0,0,0-2.47.51,6.13,6.13,0,0,0-1.9,1.37,6.36,6.36,0,0,0-1.27,1.92,7.76,7.76,0,0,0-.61,2.21Zm24.67,9.78a10.55,10.55,0,0,1-2.72.28,8.1,8.1,0,0,1-2.07-.23,2.81,2.81,0,0,1-1.39-.87,3.81,3.81,0,0,1-.77-1.67,12.21,12.21,0,0,1-.24-2.68V108.15h9.21V104.9h-9.21V98.14l-3.85.65v6.11h-4.61v3.25h4.61V118.3a20.2,20.2,0,0,0,.33,3.88,6.58,6.58,0,0,0,1.2,2.79,5.17,5.17,0,0,0,2.42,1.7,12,12,0,0,0,4,.56,11.65,11.65,0,0,0,3.55-.47c1-.31,1.65-.56,2.09-.75l-.56-3.29A11.22,11.22,0,0,1,230.77,123.47Zm23.64-14.81c-.12,1.23-.26,2.49-.42,3.79s-.34,2.69-.56,4.16-.47,3.07-.75,4.79c-.47-1.22-.87-2.3-1.18-3.24l-.89-2.68c-.28-.85-.55-1.71-.8-2.59s-.53-1.86-.85-3h-2.91c-.31,1.1-.61,2.09-.87,3s-.54,1.74-.82,2.59-.6,1.74-.94,2.68-.77,2-1.27,3.29c-.25-1.88-.48-3.57-.68-5.08s-.39-2.9-.54-4.18-.29-2.51-.4-3.69-.21-2.37-.31-3.6h-3.67c.29,3.14.72,6.59,1.3,10.37s1.3,7.59,2.18,11.44H243c.47-1.06.88-2,1.24-2.91s.71-1.76,1-2.63.66-1.8,1-2.75l1.17-3.27c.44,1.22.82,2.31,1.15,3.27s.66,1.87,1,2.75.67,1.75,1,2.63.75,1.85,1.22,2.91h2.92c.4-1.78.8-3.64,1.17-5.57s.72-3.83,1-5.71.58-3.71.79-5.5.41-3.46.57-5h-3.53C254.65,106.19,254.54,107.44,254.41,108.66Zm25.64,2.45a14.26,14.26,0,0,1,.73,4.7,14,14,0,0,1-.73,4.67,10.56,10.56,0,0,1-2,3.6,9.18,9.18,0,0,1-3.15,2.33,9.77,9.77,0,0,1-4,.82,9.49,9.49,0,0,1-3.92-.82,9.07,9.07,0,0,1-3.12-2.33,10.75,10.75,0,0,1-2.05-3.6,14,14,0,0,1-.73-4.67,14.26,14.26,0,0,1,.73-4.7,10.56,10.56,0,0,1,2.05-3.6,9.26,9.26,0,0,1,7-3.12,9.61,9.61,0,0,1,4,.82,9.36,9.36,0,0,1,3.15,2.3A10.38,10.38,0,0,1,280.05,111.11Zm-3.26,4.7a9.58,9.58,0,0,0-1.6-5.85,5.12,5.12,0,0,0-4.33-2.14,5,5,0,0,0-4.25,2.14,11.59,11.59,0,0,0,0,11.65,5,5,0,0,0,4.25,2.14,5.12,5.12,0,0,0,4.33-2.14A9.51,9.51,0,0,0,276.79,115.81Zm20.58-11.38a29.57,29.57,0,0,0-9.68,1.65v20.63h3.85V108.62a22.48,22.48,0,0,1,5.83-.8,24.48,24.48,0,0,1,2.52.12,14.49,14.49,0,0,1,2.65.54l.71-3.43a22.69,22.69,0,0,0-3-.5C299.33,104.47,298.38,104.43,297.37,104.43Zm29,19.11q-1.41-1.71-3-3.36c-1.05-1.1-2.11-2.12-3.18-3.08s-2-1.74-2.86-2.37q2.72-2.36,5.57-4.89a49.69,49.69,0,0,0,4.86-4.94h-4.56a44.22,44.22,0,0,1-4.65,4.63L313.4,114V94.14l-3.9.66v31.91h3.9V116.23c.78.53,1.67,1.19,2.66,2s2,1.64,3,2.58,1.92,1.92,2.79,2.94a22.58,22.58,0,0,1,2.21,3h4.61A24.86,24.86,0,0,0,326.37,123.54Z" transform="translate(-11.61 -17.1)"/></svg>